<svg width="39" height="39" viewBox="0 0 39 39" fill="none" xmlns="http://www.w3.org/2000/svg">
<path d="M21.125 34.125H5.85C5.59141 34.125 5.34342 34.0223 5.16057 33.8394C4.97772 33.6566 4.875 33.4086 4.875 33.15V5.85C4.875 5.59141 4.97772 5.34342 5.16057 5.16057C5.34342 4.97772 5.59141 4.875 5.85 4.875H33.15C33.4086 4.875 33.6566 4.97772 33.8394 5.16057C34.0223 5.34342 34.125 5.59141 34.125 5.85V21.125M26 30.875H30.875M30.875 30.875H35.75M30.875 30.875V26M30.875 30.875V35.75" stroke="white" stroke-width="0.9375" stroke-linecap="round" stroke-linejoin="round"/>
<path d="M16.0842 13.8336C15.9361 13.7488 15.7682 13.7044 15.5975 13.7048C15.4268 13.7053 15.2592 13.7505 15.1114 13.8361C14.9637 13.9216 14.841 14.0445 14.7556 14.1923C14.6703 14.3402 14.6252 14.5079 14.625 14.6786V24.3197C14.6249 24.4906 14.6698 24.6585 14.755 24.8065C14.8403 24.9546 14.9629 25.0777 15.1107 25.1634C15.2585 25.2492 15.4262 25.2946 15.5971 25.2951C15.768 25.2956 15.936 25.2512 16.0842 25.1663L24.518 20.3466C24.6673 20.2613 24.7914 20.1381 24.8777 19.9894C24.964 19.8407 25.0094 19.6719 25.0094 19.5C25.0094 19.3281 24.964 19.1592 24.8777 19.0105C24.7914 18.8618 24.6673 18.7386 24.518 18.6533L16.0842 13.8336Z" stroke="white" stroke-width="0.9375" stroke-linecap="round" stroke-linejoin="round"/>
</svg>
